# xmcd
#
# Track frame offsets:
#	151
#	15656
#	32768
#	52557
#	70157
#	90184
#	108064
#	123807
#	139171
#	157134
#	173424
#	189979
#	206005
#	220490
#	237485
#	265697
#	281708
#	302483
#	312820
#
# Disc length: 4175 seconds
#
# Revision: 0
# Processed by: cddbd v1.5.1PL0 Copyright (c) Steve Scherf et al.
# Submitted via: EasyCDDAExtractor 8.0.2.1
#
DISCID=f6104d13
DTITLE=Various Artist - Foolish (Soundtrack)
DYEAR=2002
DGENRE=R&B
TTITLE0=Ashanti - Foolish
TTITLE1=J-Lo - Ain't It Funny (Featuring Ja Rule and Caddillac Tah)
TTITLE2=Usher - U Don't Have To Call
TTITLE3=Tweet - Oops (Oh Remix) (Featuring Fabolous)
TTITLE4=P. Diddy - I Need A Girl Remix (Featuring Usher)
TTITLE5=Bow Wow - Take Ya Home
TTITLE6=Corey - Hush Lil' Lady (Featuring Lil' Romeo)
TTITLE7=Jagged Edge - I Got It Remix (Featuring Nas)
TTITLE8=Mary J. Blige - No More Drama Remix (Featuring P. Diddy)
TTITLE9=Truth Hurts - Addicted (Featuring Rakim)
TTITLE10=Christina Milian - Get Away (Featuring Ja Rule)
TTITLE11=R. Kelly and Jay-Z - Take You Home With Me (A.K.A. Body)
TTITLE12=Code 5 - What's Your Name Girl
TTITLE13=Michael Jackson - Butterflies Remix (Featuring Eve)
TTITLE14=Alicia Keys - A Woman's Worth (Remix) (Featuring Sacario)
TTITLE15=Cee-Lo - Closet Freak
TTITLE16=Nelly Furtado - Turn Off The Lights Remix (Featuring Timbaland)
TTITLE17=Ludacris - Word Of Mouth
TTITLE18=Various Artist - Outro
EXTD=
EXTT0=
EXTT1=
EXTT2=
EXTT3=
EXTT4=
EXTT5=
EXTT6=
EXTT7=
EXTT8=
EXTT9=
EXTT10=
EXTT11=
EXTT12=
EXTT13=
EXTT14=
EXTT15=
EXTT16=
EXTT17=
EXTT18=
PLAYORDER=
